<svg width="131" height="60" viewBox="0 0 131 60" fill="none" xmlns="http://www.w3.org/2000/svg">
<rect x="1" y="1" width="128.729" height="58" rx="29" fill="#123853"/>
<path d="M33.2989 17.8384C34.4668 15.912 37.2619 15.912 38.4298 17.8384L51.2894 39.0513C52.5015 41.0506 51.062 43.6065 48.724 43.6065H23.0047C20.6667 43.6065 19.2272 41.0506 20.4393 39.0513L33.2989 17.8384Z" fill="white"/>
<path d="M41.7443 21.2732C41.7443 20.7209 42.1921 20.2732 42.7443 20.2732H44.6643C45.2166 20.2732 45.6643 20.7209 45.6643 21.2732V33.1621C45.6643 33.7144 45.2166 34.1621 44.6643 34.1621H42.7444C42.1921 34.1621 41.7443 33.7144 41.7443 33.1621V21.2732Z" fill="white"/>
<path d="M58.6285 37.3H66.0035V34.45H67.7535V39H56.4785V37.2L65.9035 21.95H58.9285V24.75H57.1535V20.25H68.0035V22.05L58.6285 37.3ZM73.3156 39.05C72.0156 39.05 71.3656 38.4083 71.3656 37.125V28.175H69.7656V26.475H73.3906V37.3L78.3656 34.175V28.175H77.1406V26.475H80.3906V37.3H81.9656V39H78.3656V36.2L74.2156 38.8C73.949 38.9667 73.649 39.05 73.3156 39.05ZM91.8496 26.6C92.2163 26.3667 92.6413 26.25 93.1246 26.25C93.6246 26.25 94.0413 26.4333 94.3746 26.8C94.7246 27.1667 94.8996 27.7 94.8996 28.4V36.8C94.8996 37.4833 94.7913 37.9667 94.5746 38.25C94.1746 38.75 93.5663 39 92.7496 39H83.9746V37.3H85.5496V21.95H83.9746V20.25H87.5996V29.275L91.8496 26.6ZM92.8996 27.95L87.5996 31.275V37.3H92.8996V27.95ZM100.708 39.05C99.4082 39.05 98.7582 38.4083 98.7582 37.125V28.175H97.1582V26.475H100.783V37.3L105.758 34.175V28.175H104.533V26.475H107.783V37.3H109.358V39H105.758V36.2L101.608 38.8C101.342 38.9667 101.042 39.05 100.708 39.05Z" fill="white"/>
<rect x="1" y="1" width="128.729" height="58" rx="29" stroke="white" stroke-width="2"/>
</svg>
